<?xml version="1.0" encoding="iso-8859-1"?>
<!-- Generator: Adobe Illustrator 19.0.0, SVG Export Plug-In . SVG Version: 6.00 Build 0)  -->
<svg xmlns="http://www.w3.org/2000/svg" xmlns:xlink="http://www.w3.org/1999/xlink" version="1.1" id="Layer_1" x="0px" y="0px" viewBox="0 0 512.001 512.001" style="enable-background:new 0 0 512.001 512.001;" xml:space="preserve" width="512px" height="512px">
<g>
	<g>
		<path d="M256.001,0C114.842,0,0.001,114.841,0.001,256.001s114.841,256.001,256.001,256.001    c141.158,0,255.999-114.841,255.999-256.001S397.159,0,256.001,0z M256.001,493.701c-131.069,0-237.702-106.631-237.702-237.7    S124.932,18.299,256.001,18.299c131.068,0,237.7,106.632,237.7,237.702S387.069,493.701,256.001,493.701z" fill="#FFFFFF"/>
	</g>
</g>
<g>
	<g>
		<path d="M380.435,255.464H131.567c-5.053,0-9.15,4.097-9.15,9.15c0,14.662,2.367,29.087,7.034,42.876    c8.934,26.382,25.643,48.999,48.314,65.4c22.86,16.557,49.914,25.309,78.235,25.309c28.32,0,55.373-8.752,78.23-25.305    c22.676-16.405,39.386-39.02,48.319-65.402c4.667-13.789,7.034-28.214,7.034-42.875    C389.585,259.56,385.488,255.464,380.435,255.464z M256.001,379.896c-21.321,0.001-41.804-5.746-59.778-16.695    c7.649-8.21,18.499-13.083,29.926-13.083c8.87,0,17.302,2.79,24.385,8.067c3.244,2.417,7.69,2.417,10.934,0    c7.082-5.279,15.509-8.067,24.372-8.067c11.421,0,22.272,4.871,29.932,13.085C297.801,374.151,277.321,379.896,256.001,379.896z     M330.677,352.44c-11.137-12.9-27.533-20.621-44.838-20.621c-10.623,0-20.819,2.77-29.84,8.066    c-9.021-5.295-19.221-8.066-29.852-8.066c-17.311,0-33.707,7.722-44.829,20.617c-12.623-10.71-22.68-23.855-29.665-38.733h208.694    C353.362,328.583,343.304,341.728,330.677,352.44z M367.118,295.405H144.883c-1.954-7.067-3.233-14.303-3.809-21.642h229.852    C370.351,281.101,369.073,288.338,367.118,295.405z" fill="#FFFFFF"/>
	</g>
</g>
<g>
	<g>
		<path d="M203.316,200.358l-54.287-38.174c-4.133-2.906-9.84-1.913-12.747,2.222c-2.906,4.133-1.912,9.84,2.221,12.747    l35.988,25.306l-75.523,12.47c-4.986,0.823-8.36,5.532-7.537,10.518c0.739,4.481,4.619,7.66,9.017,7.66    c0.495,0,0.997-0.04,1.502-0.123l97.595-16.113c3.665-0.606,6.601-3.368,7.428-6.99    C207.8,206.259,206.356,202.495,203.316,200.358z" fill="#FFFFFF"/>
	</g>
</g>
<g>
	<g>
		<path d="M413.034,214.929L337.51,202.46l35.988-25.306c4.133-2.907,5.129-8.614,2.222-12.747    c-2.907-4.134-8.615-5.129-12.747-2.221l-54.287,38.174c-3.039,2.137-4.484,5.9-3.657,9.523c0.827,3.623,3.763,6.384,7.429,6.989    l97.595,16.113c0.505,0.083,1.006,0.123,1.502,0.123c4.397,0,8.276-3.179,9.017-7.66    C421.394,220.461,418.02,215.752,413.034,214.929z" fill="#FFFFFF"/>
	</g>
</g>
<g>
</g>
<g>
</g>
<g>
</g>
<g>
</g>
<g>
</g>
<g>
</g>
<g>
</g>
<g>
</g>
<g>
</g>
<g>
</g>
<g>
</g>
<g>
</g>
<g>
</g>
<g>
</g>
<g>
</g>
</svg>
