<?xml version="1.0" encoding="iso-8859-1"?>
<!-- Generator: Adobe Illustrator 19.0.0, SVG Export Plug-In . SVG Version: 6.00 Build 0)  -->
<svg version="1.1" id="Layer_1" xmlns="http://www.w3.org/2000/svg" xmlns:xlink="http://www.w3.org/1999/xlink" x="0px" y="0px"
	 viewBox="0 0 512 512" style="enable-background:new 0 0 512 512;" xml:space="preserve">
<g>
	<path style="fill:#D75A4A;" d="M256,18.618v25.814c39.322,26.81,65.164,71.941,65.164,123.131S295.322,263.885,256,290.695v44.432
		h27.927v55.855l55.855-55.855h139.636c10.287,0,18.618-8.332,18.618-18.618V18.618C498.036,8.332,489.705,0,479.418,0h-204.8
		C264.332,0,256,8.332,256,18.618"/>
	<path style="fill:#38454F;" d="M283.927,335.127H256v-44.432c-23.878,16.272-52.708,25.814-83.782,25.814
		c-16.766,0-32.815-2.895-47.858-7.997l-45.233,45.233v-70.014c-11.487-9.216-21.439-20.21-29.77-32.386H32.582
		c-10.287,0-18.618,8.332-18.618,18.618v167.564c0,10.287,8.332,18.618,18.618,18.618V512l55.855-55.855h204.8
		c10.287,0,18.618-8.332,18.618-18.618v-74.473l-27.927,27.927V335.127z"/>
	<g>
		<path style="fill:#FFFFFF;" d="M442.182,83.782h-65.164c-5.148,0-9.309-4.161-9.309-9.309c0-5.148,4.161-9.309,9.309-9.309h65.164
			c5.148,0,9.309,4.161,9.309,9.309C451.491,79.621,447.33,83.782,442.182,83.782"/>
		<path style="fill:#FFFFFF;" d="M339.782,83.782h-46.545c-5.148,0-9.309-4.161-9.309-9.309c0-5.148,4.161-9.309,9.309-9.309h46.545
			c5.148,0,9.309,4.161,9.309,9.309C349.091,79.621,344.93,83.782,339.782,83.782"/>
		<path style="fill:#FFFFFF;" d="M442.182,130.327h-27.927c-5.148,0-9.309-4.161-9.309-9.309c0-5.148,4.161-9.309,9.309-9.309
			h27.927c5.148,0,9.309,4.161,9.309,9.309C451.491,126.166,447.33,130.327,442.182,130.327"/>
		<path style="fill:#FFFFFF;" d="M377.018,130.327h-55.855c-5.148,0-9.309-4.161-9.309-9.309c0-5.148,4.161-9.309,9.309-9.309
			h55.855c5.148,0,9.309,4.161,9.309,9.309C386.327,126.166,382.166,130.327,377.018,130.327"/>
		<path style="fill:#FFFFFF;" d="M442.182,176.873h-55.855c-5.148,0-9.309-4.161-9.309-9.309s4.161-9.309,9.309-9.309h55.855
			c5.148,0,9.309,4.161,9.309,9.309S447.33,176.873,442.182,176.873"/>
		<path style="fill:#FFFFFF;" d="M349.091,176.873h-27.927c-5.148,0-9.309-4.161-9.309-9.309s4.161-9.309,9.309-9.309h27.927
			c5.148,0,9.309,4.161,9.309,9.309S354.239,176.873,349.091,176.873"/>
		<path style="fill:#FFFFFF;" d="M442.182,223.418h-27.927c-5.148,0-9.309-4.161-9.309-9.309s4.161-9.309,9.309-9.309h27.927
			c5.148,0,9.309,4.161,9.309,9.309S447.33,223.418,442.182,223.418"/>
		<path style="fill:#FFFFFF;" d="M377.018,223.418h-55.855c-5.148,0-9.309-4.161-9.309-9.309s4.161-9.309,9.309-9.309h55.855
			c5.148,0,9.309,4.161,9.309,9.309S382.166,223.418,377.018,223.418"/>
		<path style="fill:#FFFFFF;" d="M442.182,269.964h-46.545c-5.148,0-9.309-4.161-9.309-9.309s4.161-9.309,9.309-9.309h46.545
			c5.148,0,9.309,4.161,9.309,9.309S447.33,269.964,442.182,269.964"/>
		<path style="fill:#FFFFFF;" d="M358.4,269.964h-65.164c-5.148,0-9.309-4.161-9.309-9.309s4.161-9.309,9.309-9.309H358.4
			c5.148,0,9.309,4.161,9.309,9.309S363.548,269.964,358.4,269.964"/>
	</g>
	<path style="fill:none;stroke:#000000;stroke-width:2;stroke-linecap:round;stroke-linejoin:round;" d="M237.377,167.564h9.309"/>
	<g>
		<path style="fill:#FFFFFF;" d="M228.073,372.364h-65.164c-5.148,0-9.309-4.161-9.309-9.309s4.161-9.309,9.309-9.309h65.164
			c5.148,0,9.309,4.161,9.309,9.309S233.221,372.364,228.073,372.364"/>
		<path style="fill:#FFFFFF;" d="M125.673,372.364h-9.309c-5.148,0-9.309-4.161-9.309-9.309s4.161-9.309,9.309-9.309h9.309
			c5.148,0,9.309,4.161,9.309,9.309S130.821,372.364,125.673,372.364"/>
		<path style="fill:#FFFFFF;" d="M228.073,418.909h-27.927c-5.148,0-9.309-4.161-9.309-9.309c0-5.148,4.161-9.309,9.309-9.309
			h27.927c5.148,0,9.309,4.161,9.309,9.309C237.382,414.748,233.221,418.909,228.073,418.909"/>
		<path style="fill:#FFFFFF;" d="M162.909,418.909h-46.545c-5.148,0-9.309-4.161-9.309-9.309c0-5.148,4.161-9.309,9.309-9.309
			h46.545c5.148,0,9.309,4.161,9.309,9.309C172.218,414.748,168.057,418.909,162.909,418.909"/>
	</g>
	<path style="fill:#4DC95B;" d="M172.218,18.618c-82.264,0-148.945,66.681-148.945,148.945c0,47.011,21.83,88.874,55.855,116.168
		v70.014l45.233-45.233c15.043,5.101,31.092,7.997,47.858,7.997c82.264,0,148.945-66.681,148.945-148.945
		S254.483,18.618,172.218,18.618"/>
	<g>
		<path style="fill:#FFFFFF;" d="M246.691,130.327h-46.545c-5.148,0-9.309-4.161-9.309-9.309c0-5.148,4.161-9.309,9.309-9.309
			h46.545c5.148,0,9.309,4.161,9.309,9.309C256,126.166,251.839,130.327,246.691,130.327"/>
		<path style="fill:#FFFFFF;" d="M162.909,130.327H97.745c-5.148,0-9.309-4.161-9.309-9.309c0-5.148,4.161-9.309,9.309-9.309h65.164
			c5.148,0,9.309,4.161,9.309,9.309C172.218,126.166,168.057,130.327,162.909,130.327"/>
		<path style="fill:#FFFFFF;" d="M200.145,176.873h-37.236c-5.148,0-9.309-4.161-9.309-9.309s4.161-9.309,9.309-9.309h37.236
			c5.148,0,9.309,4.161,9.309,9.309S205.293,176.873,200.145,176.873"/>
		<path style="fill:#FFFFFF;" d="M125.673,176.873H97.745c-5.148,0-9.309-4.161-9.309-9.309s4.161-9.309,9.309-9.309h27.927
			c5.148,0,9.309,4.161,9.309,9.309S130.821,176.873,125.673,176.873"/>
		<path style="fill:#FFFFFF;" d="M246.691,223.418h-27.927c-5.148,0-9.309-4.161-9.309-9.309s4.161-9.309,9.309-9.309h27.927
			c5.148,0,9.309,4.161,9.309,9.309S251.839,223.418,246.691,223.418"/>
		<path style="fill:#FFFFFF;" d="M181.527,223.418H97.745c-5.148,0-9.309-4.161-9.309-9.309s4.161-9.309,9.309-9.309h83.782
			c5.148,0,9.309,4.161,9.309,9.309S186.675,223.418,181.527,223.418"/>
	</g>
</g>
<g>
</g>
<g>
</g>
<g>
</g>
<g>
</g>
<g>
</g>
<g>
</g>
<g>
</g>
<g>
</g>
<g>
</g>
<g>
</g>
<g>
</g>
<g>
</g>
<g>
</g>
<g>
</g>
<g>
</g>
</svg>
